<svg width="18" height="16" viewBox="0 0 18 16" fill="none" xmlns="http://www.w3.org/2000/svg">
<path d="M0 2.72246V1.31885C0 0.737293 0.473449 0.26416 1.05536 0.26416H16.9446C17.5266 0.26416 18 0.737293 18 1.31885V2.72246H0Z" fill="#FF6B08"/>
<path d="M18 3.80518H0V14.6808C0 15.2633 0.4725 15.7355 1.05536 15.7355H16.9446C17.5275 15.7355 18 15.2633 18 14.6808V3.80518ZM6.49195 11.4021C6.72131 11.5818 6.7615 11.9132 6.58167 12.1425C6.47761 12.2751 6.32261 12.3445 6.16605 12.3445C6.05215 12.3445 5.93743 12.3078 5.84086 12.2321L3.65906 10.5228C3.53148 10.4228 3.45695 10.2698 3.45695 10.1078C3.45695 9.94574 3.53148 9.79271 3.65906 9.69276L5.84086 7.98343C6.07018 7.80374 6.40192 7.84393 6.58167 8.07307C6.7615 8.30233 6.72131 8.63375 6.49195 8.81347L4.83989 10.1078L6.49195 11.4021ZM10.2478 7.52274L8.78984 12.9655C8.7267 13.2011 8.51347 13.3566 8.28042 13.3566C8.23525 13.3566 8.18937 13.3508 8.14363 13.3385C7.8621 13.2632 7.695 12.9741 7.77038 12.6927L9.22827 7.25C9.30361 6.96864 9.5928 6.80161 9.87444 6.87695C10.156 6.95229 10.3231 7.24138 10.2478 7.52274ZM14.3409 10.5228L12.1591 12.2321C12.0626 12.3077 11.9478 12.3445 11.8339 12.3445C11.6774 12.3445 11.5224 12.2751 11.4183 12.1424C11.2385 11.9132 11.2787 11.5818 11.508 11.4021L13.1601 10.1077L11.508 8.81343C11.2721 8.62854 11.2364 8.28299 11.4345 8.05342C11.6201 7.83841 11.9472 7.81735 12.1708 7.99257L14.341 9.69276C14.4686 9.79271 14.5431 9.94574 14.5431 10.1078C14.5431 10.2698 14.4686 10.4228 14.3409 10.5228Z" fill="#FF6B08"/>
</svg>
